<svg width="25" height="24" viewBox="0 0 25 24" fill="none" xmlns="http://www.w3.org/2000/svg">
<path d="M21.99 12.0001C22.31 10.9801 22.5 9.88012 22.5 8.69012C22.5 5.60012 20.01 3.1001 16.94 3.1001C15.12 3.1001 13.51 3.98015 12.5 5.34015C11.49 3.98015 9.87 3.1001 8.06 3.1001C4.99 3.1001 2.5 5.60012 2.5 8.69012C2.5 15.6901 8.98 19.8201 11.88 20.8201C12.05 20.8801 12.27 20.9101 12.5 20.9101" stroke="#292D32" stroke-width="1.5" stroke-linecap="round" stroke-linejoin="round"/>
<path d="M18.24 21.0001C20.0073 21.0001 21.44 19.5674 21.44 17.8001C21.44 16.0328 20.0073 14.6001 18.24 14.6001C16.4727 14.6001 15.04 16.0328 15.04 17.8001C15.04 19.5674 16.4727 21.0001 18.24 21.0001Z" stroke="#292D32" stroke-width="1.5" stroke-linecap="round" stroke-linejoin="round"/>
<path d="M22.04 21.6001L21.04 20.6001" stroke="#292D32" stroke-width="1.5" stroke-linecap="round" stroke-linejoin="round"/>
</svg>
