<svg width="50" height="20" viewBox="0 0 50 20" fill="none" xmlns="http://www.w3.org/2000/svg">
<path fill-rule="evenodd" clip-rule="evenodd" d="M5.37325 4.37088C2.58612 4.71674 0.370291 6.90988 0.0391012 9.65041C-0.0130337 10.0818 -0.0130337 10.7556 0.0391012 11.187C0.302745 13.3686 1.81462 15.2949 3.88851 16.0917C5.45076 16.6919 7.34686 16.6109 8.81258 15.8814C9.43891 15.5697 10.1882 15.0148 10.5258 14.6129L10.6797 14.4296L10.5919 14.3959C10.5436 14.3774 9.89508 14.1192 9.15076 13.8219L7.79751 13.2816L7.52202 13.4078C7.04206 13.6278 6.73955 13.6895 6.12502 13.6927C5.67087 13.6951 5.52672 13.6814 5.26049 13.6105C4.3604 13.3707 3.55398 12.7388 3.15994 11.9647L3.07883 11.8054H7.56754H12.0563L12.1004 11.5526C12.2349 10.7822 12.2206 9.80677 12.0644 9.11022C11.538 6.76139 9.71537 4.96436 7.34663 4.45854C7.05292 4.3958 6.81051 4.37568 6.23778 4.36642C5.83465 4.3599 5.44561 4.36192 5.37325 4.37088ZM29.8056 4.37084C27.6069 4.64305 25.6888 6.10705 24.8686 8.13896C24.5572 8.91027 24.4521 9.48565 24.4521 10.4187C24.4521 11.1908 24.492 11.4999 24.6723 12.124C25.1444 13.7589 26.3281 15.1525 27.8698 15.8887C28.7458 16.3071 29.549 16.4882 30.5338 16.4896C32.8766 16.4929 34.9569 15.2165 35.9993 13.1359C37.5046 10.1314 36.2861 6.4755 33.2825 4.9849C32.3718 4.53294 31.731 4.38096 30.6701 4.36537C30.267 4.35941 29.878 4.36189 29.8056 4.37084ZM11.5377 4.68121C11.5377 4.71175 12.1484 6.04165 12.6837 7.17681C12.7809 7.38294 12.9333 7.71182 13.0223 7.90764C13.1114 8.10347 13.2721 8.44921 13.3795 8.67596C13.4869 8.9027 13.6403 9.23158 13.7205 9.40679C13.8006 9.58201 14.5413 11.1758 15.3664 12.9485L16.8665 16.1717L18.4067 16.1815L19.9469 16.1913L20.0507 15.9606C20.1078 15.8338 20.2391 15.5511 20.3426 15.3325C20.4461 15.1138 20.6281 14.7241 20.747 14.4664C21.0197 13.8758 21.3003 13.2722 23.5037 8.5359C24.4889 6.41812 25.295 4.6766 25.295 4.6658C25.295 4.65497 24.6071 4.65055 23.7663 4.65594L22.2376 4.66573L21.9484 5.28413C21.7894 5.62425 21.4436 6.36633 21.1801 6.93319C20.4605 8.48129 20.0239 9.42077 19.6473 10.2313C18.7742 12.1107 18.4485 12.8003 18.4214 12.8273C18.4053 12.8434 17.5355 11.0137 16.4885 8.76118L14.585 4.66573L13.0613 4.65594C12.1332 4.64999 11.5377 4.65984 11.5377 4.68121ZM6.96737 7.22819C7.63768 7.40809 8.22958 7.79704 8.6865 8.35784C8.82697 8.53028 9.09422 8.95356 9.09438 9.0039C9.09445 9.01934 7.74086 9.03201 6.08645 9.03201H3.07845L3.14088 8.9102C3.28011 8.63859 3.59615 8.22677 3.82773 8.01521C4.28195 7.6002 4.79063 7.33204 5.38524 7.19408C5.80157 7.0975 6.53969 7.11343 6.96737 7.22819ZM31.2454 7.19517C32.0298 7.3681 32.7503 7.84172 33.2427 8.50809C33.5805 8.96526 33.7575 9.42767 33.8288 10.0389C34.0206 11.6837 32.9908 13.1784 31.3655 13.6144C30.9295 13.7313 30.1417 13.7294 29.6929 13.6102C29.1128 13.4562 28.4385 13.0595 28.1152 12.6822C27.5306 11.9996 27.2742 11.4021 27.2241 10.6054C27.1464 9.36815 27.7683 8.2228 28.88 7.55587C29.5436 7.15777 30.4493 7.01966 31.2454 7.19517Z" fill="#792BF9"/>
<path fill-rule="evenodd" clip-rule="evenodd" d="M37.7837 8.22659V16.4532H39.1745H40.5652L40.5659 13.408C40.5662 11.7332 40.5827 10.2102 40.6024 10.0236C40.677 9.31768 40.9711 8.66427 41.4361 8.17109C41.4843 8.11997 41.5195 8.06514 41.5143 8.04928C41.5091 8.03343 41.5179 8.02466 41.5339 8.02983C41.5498 8.03497 41.6132 7.99149 41.6748 7.93321C41.9759 7.64826 42.5705 7.32066 43.0152 7.19465C43.3551 7.09833 44.0544 7.05827 44.4139 7.11456C44.7008 7.1595 45.2953 7.33786 45.3645 7.39985C45.389 7.42166 45.515 7.49857 45.6446 7.57072C45.9461 7.73851 46.4844 8.2631 46.7028 8.60195C46.8725 8.86516 47.0583 9.26865 47.0909 9.44466C47.1005 9.49619 47.1288 9.59738 47.1539 9.66953C47.2255 9.87574 47.2117 10.9098 47.1336 11.1874C47.0348 11.5383 46.9031 11.8484 46.7542 12.0805C46.6791 12.1977 46.6182 12.3026 46.619 12.3137C46.6197 12.3248 46.4631 12.4893 46.2709 12.6792C45.8901 13.0556 45.5967 13.2539 45.2005 13.4026C45.0596 13.4555 44.9199 13.5184 44.89 13.5424C44.848 13.5762 44.8422 13.5755 44.864 13.5393C44.8857 13.5033 44.8699 13.501 44.7954 13.5293C44.5515 13.6217 43.9017 13.6921 43.2622 13.6952C42.8952 13.697 42.595 13.7132 42.595 13.7311C42.595 13.7491 42.5601 13.9987 42.5176 14.2858C42.475 14.573 42.4353 14.8619 42.4294 14.9278C42.4235 14.9938 42.4092 15.073 42.3976 15.104C42.3538 15.2203 42.2088 16.418 42.2353 16.4443C42.2505 16.4595 42.7648 16.4716 43.3781 16.4711C44.2559 16.4705 44.5852 16.4561 44.9255 16.4037C45.3896 16.3322 45.8894 16.2157 46.0719 16.1365C46.1339 16.1096 46.2692 16.0577 46.3726 16.0212C46.7573 15.8856 47.5942 15.4072 47.5942 15.323C47.5942 15.3032 47.6087 15.2958 47.6263 15.3067C47.6721 15.3349 48.345 14.6956 48.6034 14.3784C48.9573 13.9439 49.3605 13.2992 49.3608 13.1675C49.3608 13.1435 49.3743 13.1182 49.3907 13.1113C49.4334 13.0934 49.5785 12.7423 49.7037 12.3539C50.0461 11.2917 50.0929 9.93893 49.8251 8.84646C49.7279 8.44989 49.5368 7.89019 49.472 7.81234C49.4526 7.78903 49.4478 7.75886 49.4614 7.74529C49.475 7.73173 49.4664 7.72063 49.4423 7.72063C49.4182 7.72063 49.4012 7.70796 49.4045 7.69252C49.4146 7.64586 49.3221 7.44411 49.2584 7.37403C49.2257 7.3379 49.2093 7.30836 49.222 7.30836C49.2576 7.30836 48.8543 6.68082 48.6945 6.48758C48.1751 5.85932 47.7263 5.46846 47.1012 5.09996C46.6031 4.80628 46.3222 4.69235 46.2715 4.76337C46.2421 4.80467 46.2386 4.8016 46.2556 4.74924C46.2777 4.6808 46.165 4.61405 45.9951 4.59505C45.9529 4.59033 45.9007 4.57556 45.8791 4.56226C45.8313 4.5328 45.5967 4.47283 45.245 4.40024C44.8599 4.3207 43.8554 4.29113 43.3865 4.34548C42.9634 4.39454 42.4036 4.52568 42.1627 4.63227C42.08 4.66885 41.9997 4.69564 41.9842 4.69182C41.9687 4.688 41.956 4.70273 41.956 4.72454C41.956 4.74635 41.939 4.75374 41.9181 4.74092C41.8973 4.72806 41.8701 4.74395 41.8577 4.77619C41.8453 4.80838 41.8014 4.83476 41.7601 4.83476C41.6584 4.83476 41.2311 5.06237 40.8758 5.30584L40.584 5.50582L40.5744 2.75289L40.5647 0H39.1742H37.7837V8.22659ZM42.5746 4.56983C42.5865 4.58902 42.5818 4.61356 42.5643 4.6244C42.5467 4.63523 42.5323 4.61952 42.5323 4.5895C42.5323 4.52631 42.5442 4.5208 42.5746 4.56983ZM47.2347 9.4782C47.2462 9.49668 47.2311 9.52111 47.2012 9.53251C47.165 9.54637 47.154 9.53521 47.1679 9.49896C47.1921 9.436 47.2059 9.43173 47.2347 9.4782Z" fill="#792BF9"/>
<path fill-rule="evenodd" clip-rule="evenodd" d="M37.7837 19.2692V20H43.8918H49.9999V19.2692V18.5383H43.8918H37.7837V19.2692Z" fill="#792BF9"/>
</svg>
